<?xml version="1.0" encoding="UTF-8" standalone="no"?>
<svg
   id="Layer_1"
   data-name="Layer 1"
   viewBox="0 0 250 99.999998"
   version="1.1"
   width="250"
   height="100"
   xmlns="http://www.w3.org/2000/svg"
   xmlns:svg="http://www.w3.org/2000/svg">
  <defs
     id="defs21" />
  <g
     id="g25"
     transform="translate(-4.4659102)">
    <g
       id="g24"
       transform="matrix(1.0706773,0,0,1.0706773,-5.0547947,-5.3659314)">
      <g
         id="g14"
         transform="matrix(0.35706591,0,0,0.35706591,-16.517297,8.0447615)">
        <path
           d="m 82.01,244.56 c -0.12,-2.65 1.53,-5.7 3.47,-7.56 9.96,-9.53 21.49,-1.76 27.57,-3.43 l 13.43,-3.68 -0.17,-18.93 c -13.79,1.68 -26.38,1.38 -39.03,-2.88 -2.25,-0.76 -3.07,-2.31 -2.95,-4.82 0.7,-14.78 4.86,-28.57 11.14,-42.08 l -3.8,-1.68 c 12.96,-33.49 37.82,-59.06 74.68,-63.26 6.36,-0.72 12.44,-2.95 17.05,-6.91 7.36,-6.32 7.35,-16.29 0.62,-23.14 -11.38,-11.58 -23.59,-20.13 -26.21,-39.17 -1.58,-11.49 4.84,-21.86 15.98,-25.33 8.84,-2.75 18.76,-2.18 27.19,2.04 14.44,7.23 17.63,22.98 19.73,37.67 3.32,23.24 9.73,45.27 19.3,66.7 2.67,5.98 10.08,23.36 4.54,27.86 -2.92,2.37 -6.33,0.05 -9.04,-1.44 -5.42,-4.33 -7.95,-10.22 -11.62,-17.09 -1.03,15.6 -3.23,30.68 -10.76,44.32 -7.53,13.64 -17.94,24.18 -32.1,30.87 -0.26,9.43 1.34,18.07 4.05,26.85 2.04,6.62 11.63,-1.74 18.66,12.41 7.53,1.04 14.26,5.04 16.34,12.7 z m 86.58,-52.55 c 1.87,10.49 4.29,19.74 7.4,29.31 0.91,2.8 0.35,5.54 -1.18,8.62 l 21.56,1.67 c -4.29,-6.76 -13.12,-0.59 -16.49,-9.78 -3.78,-10.3 -5.2,-21.27 -4.9,-32.63 36.04,-16.98 49.43,-60.12 38.93,-97.38 -5.04,-17.87 -12.66,-34.59 -22.38,-50.2 -0.98,-1.58 -1.37,-3.27 -0.29,-4.34 0.74,-0.73 3.43,-0.43 4.06,0.45 12.58,17.46 21.2,40.07 28.12,60.32 2.41,7.06 9.77,29.53 17.38,32.21 -0.2,-5.01 -1.85,-9.23 -3.66,-13.77 -5.21,-13.09 -10.5,-25.66 -14.56,-39.22 -4.06,-13.56 -5.99,-27.59 -8.52,-41.78 -1.5,-8.4 -3.83,-16.4 -9.76,-22.55 -9.53,-9.89 -30.07,-10.48 -37.89,0.69 -9.07,12.94 3.11,32.29 13.86,42.18 4.04,3.71 8.45,6.95 11.77,11.33 7.09,9.32 3.48,22.05 -6.33,28.16 -17.74,11.04 -33.86,2.45 -57.78,22.31 -11.7,9.72 -21.08,22.02 -27.05,35.85 2.14,0.56 3.7,1.1 4.92,1.96 -7.5,13.96 -14.08,31.11 -13.82,47.31 9.46,3.28 18.96,3.72 28.69,2.7 l 11.37,-1.19 0.53,25.33 c 14.71,-2.59 18.3,5.05 29.06,-0.31 -6.81,-1.9 -12.82,-2.79 -19.61,-3.53 -7.55,-0.82 -6.39,-16.44 -6.32,-22.14 11.76,-2.29 22.01,-6.58 32.86,-11.58 z m 1.75,32.56 -6.55,-24.01 c -7.78,3.45 -14.34,5.83 -22.28,8.15 -0.07,3.64 0.41,7.79 1.16,11.38 l 27.67,4.47 z"
           fill="#f3f6f8"
           id="path13" />
        <path
           d="m 149.94,185.29 c -5.16,2.7 -31.47,14.89 -34.4,10.56 -0.45,-0.67 0.64,-2.49 1.65,-2.83 19.04,-6.26 36.47,-16 51.78,-28.97 8.4,-7.12 14.24,-15.64 19.19,-25.29 4.95,-9.66 7.33,-19.73 7.23,-30.86 -0.01,-1.44 1.44,-3.03 2.81,-3.25 1.17,-0.19 3.02,1.73 3.04,3.41 0.22,19.32 -6.98,37 -19.11,51.95 -8.78,10.83 -19.81,18.79 -32.18,25.28 z"
           fill="#f3f6f8"
           id="path14" />
      </g>
    </g>
    <g
       id="g23"
       transform="matrix(0.99987923,0,0,0.99987923,-13.320456,-3.8056713)">
      <g
         id="g22"
         transform="matrix(0.53716139,0,0,0.53716139,95.521291,-132.25949)">
        <path
           d="m 101.11,357.4 -0.17,10.99 c -0.03,2.13 1.94,3.72 3.81,3.95 l 1.75,0.22 c 0.36,0.04 0.22,0.58 0.26,1.67 l -20.89,-0.26 c 2.67,-2.01 4.95,-2.77 6.43,-4.27 l 0.12,-28.51 c 0,-2.32 -1.54,-3.69 -3.73,-4.04 l -1.81,-0.3 c -0.34,-0.06 0.14,-1.68 0.57,-1.69 l 18.88,-0.17 c 7.35,-0.07 17.48,0.97 18.54,9.05 0.5,3.77 -1.21,7.47 -4.69,9.31 l -4.73,2.5 9.64,11.67 c 2.35,2.85 5.1,3.74 9.07,6.34 l -14.07,0.31 -11.78,-14.53 c -1.51,-1.86 -4.63,-3.4 -7.21,-2.25 z m 8.58,-3.69 c 4.02,-0.73 6.42,-3.98 6.37,-7.47 -0.05,-3.49 -2,-7.06 -6.17,-7.77 -2.73,-0.47 -5.59,-0.46 -8.83,-0.41 v 16.17 c 3.19,0.02 5.92,-0.03 8.64,-0.52 z"
           fill="#f3f6f8"
           id="path1" />
        <path
           d="m 270.85,367.36 c 5.3,5.44 9.71,4.84 9.66,5.23 l -0.23,1.66 -14.18,-0.12 c -2.73,-3.19 -16,-17.83 -18.4,-17.75 -0.54,0.02 -1.43,1.58 -1.42,2.15 l 0.18,12.34 c 2.55,1.12 4.08,1.19 6.07,3.03 -1.06,0.31 -23.86,0.99 -20.75,-0.76 2.76,-1.55 5.98,-0.7 5.97,-5.55 L 237.7,341.2 c 0,-2.36 -1.72,-3.77 -3.91,-4.11 l -1.87,-0.29 c -0.31,-0.05 0.24,-1.72 0.57,-1.72 l 18.73,0.09 c 0.21,0 1.03,1.16 0.84,1.27 -2.09,1.25 -6.01,0.65 -5.85,5.61 0.15,4.33 0.18,8.06 0.66,12.65 2.7,-1.94 20.68,-15.64 17.44,-16.78 l -2.14,-0.75 -1.33,-0.47 c -5.78,-2.04 15.88,-1.81 15.75,-1.17 -2.04,2.59 -4.76,2.37 -6.52,3.94 l -14.16,12.58 14.92,15.32 z"
           fill="#f3f6f8"
           id="path2" />
        <path
           d="m 153.01,355.37 0.13,15.87 h 12.93 c 5.39,0 7.39,-4.92 8.97,-6.86 0.27,-0.33 1.7,0.67 1.64,1.08 l -1.33,8.69 -34.65,0.09 c -0.73,0 -1.74,-0.35 -1.99,-0.48 -0.25,-0.13 -0.14,-1.15 0.13,-1.2 l 1.42,-0.25 c 1.92,-0.34 3.93,-1.83 3.93,-3.93 l 0.04,-27.2 c 0,-2.31 -1.7,-3.91 -3.92,-4.08 l -1.5,-0.12 c -0.38,-0.03 -0.45,-0.88 -0.4,-1.25 0.05,-0.37 1.33,-0.66 1.74,-0.66 l 33.54,0.06 0.07,8.41 c 0,0.64 -2.28,0.28 -2.44,-0.35 -0.61,-2.4 -3.11,-5.13 -5.66,-5.14 l -12.49,-0.06 -0.13,14.53 9.49,0.04 c 3.21,0.01 4.45,-4.76 4.67,-4.74 l 1.8,0.16 -0.44,12.38 c -2.68,-1.6 -3.03,-4.56 -4.6,-4.69 -3.78,-0.3 -6.59,-0.3 -10.95,-0.31 z"
           fill="#f3f6f8"
           id="path3" />
        <path
           d="m 209.59,355.47 -9.75,-0.09 0.04,15.62 c 4.88,0.43 9.55,0.54 14.5,-0.03 4.21,-0.48 5.81,-4.66 7.62,-6.72 0.28,-0.32 1.62,0.76 1.53,1.26 l -1.55,8.71 -37.3,-0.13 c 2.27,-2.48 4.7,-2.1 6.39,-3.9 l 0.15,-28.98 c 0.01,-2.34 -1.76,-3.62 -3.89,-4.07 l -1.75,-0.37 c -0.33,-0.07 0.11,-1.64 0.68,-1.64 l 33.91,-0.09 0.38,8.19 c 0.02,0.39 -1.48,1.47 -1.7,1.16 -1.67,-2.39 -2.5,-6.24 -6.2,-6.28 l -12.77,-0.13 v 14.64 c 0,0 9.07,-0.07 9.07,-0.07 3.44,-0.03 6.99,-9.45 6.6,-2.93 l -0.65,10.66 c -2.61,-2.23 -3.31,-4.81 -5.32,-4.83 z"
           fill="#f3f6f8"
           id="path4" />
        <path
           d="m 43.89,353.56 c -0.57,9.03 4.69,15.71 12.69,17.73 8.46,2.14 16,-0.73 20.66,-9.09 1.32,3.61 0.41,6.36 -0.35,9.61 -9.27,3.97 -19.64,4.38 -29.37,1.44 -8.23,-2.49 -13.47,-9.31 -13.66,-17.38 -0.19,-8.07 4.41,-15.33 12.46,-18.65 9.58,-3.95 20.47,-3.56 30.68,-0.97 l 0.05,9.45 -2.36,-0.3 c -2.74,-9.36 -15.47,-9.12 -22.24,-5.9 -5.28,2.52 -8.18,7.95 -8.57,14.06 z"
           fill="#f3f6f8"
           id="path5" />
        <path
           d="m 99.29,415.43 c -3.8,0.91 -7.93,0.66 -11.69,0.43 l -0.06,-16.37 c 6.35,-0.21 17.18,-0.99 17.72,7.62 0.22,3.44 -1.58,7.28 -5.96,8.32 z m -0.16,-11.95 c -2.02,-1.57 -5.18,-1.75 -7.48,-1.25 l 0.14,11.4 c 3.79,0.33 6.7,-0.03 8.3,-2.54 1.31,-2.05 1.39,-5.78 -0.96,-7.61 z"
           fill="#f3f6f8"
           id="path6" />
        <path
           d="m 196.93,400.26 c 4.62,2.11 5.19,6.55 4.04,10.73 -0.97,3.52 -5.04,5.39 -9.23,5.49 -4.59,0.11 -8.54,-2.04 -9.67,-6.42 -0.99,-3.85 0.87,-8.48 5.26,-10.12 2.67,-0.99 6.81,-0.96 9.6,0.32 z m 0.25,7.34 c -0.02,-3.81 -2.64,-6.09 -5.66,-6.04 -3.32,0.05 -5.24,2.55 -5.42,5.93 -0.2,3.77 1.95,6.61 5.35,6.62 3.4,0.01 5.75,-2.36 5.73,-6.51 z"
           fill="#f3f6f8"
           id="path7" />
        <path
           d="m 227.34,415.69 c -7.48,2.45 -5.64,-6.45 -11.28,-5.95 l -0.68,6.05 -3.6,0.05 0.03,-16.41 10.41,0.18 c 2.15,0.04 4.38,2.68 4.44,4.32 0.09,2.67 -1.26,4.21 -3.79,5.56 l 4.47,6.19 z m -5.16,-8.63 -0.05,-4.63 -6.44,-0.5 0.08,5.94 z"
           fill="#f3f6f8"
           id="path8" />
        <path
           d="m 249.35,407.4 c 1.31,0.4 2.81,3.29 2.51,4.56 -1.28,5.53 -10.2,5.34 -14.5,3.06 l 0.52,-3.24 c 3.43,1.89 7.29,4.26 10.48,-0.24 -3.15,-3.24 -10.37,-2.19 -11.25,-6.37 -0.38,-1.81 0.71,-4.37 2.6,-5.16 3.04,-1.26 7.15,-0.89 10.22,0.08 l 0.29,3.04 c -6.52,-2.99 -10.13,-0.45 -9.26,0.74 0.34,0.47 1.33,1.37 1.95,1.56 l 6.43,1.96 z"
           fill="#f3f6f8"
           id="path9" />
        <path
           d="m 170.38,415.17 c -4.34,2.18 -8.62,1.51 -12.36,-0.24 l 0.57,-3.07 c 3.35,2.29 8.68,3.39 10.03,0.09 0.22,-0.54 -0.89,-1.85 -1.53,-2.02 l -5.89,-1.63 c -1.34,-0.37 -3.21,-2.49 -3.29,-3.79 -0.1,-1.54 1.33,-3.91 3.18,-4.65 2.42,-0.96 7.12,-0.59 9.21,0.33 0.7,0.31 0.45,3.09 0.15,3.2 -3.46,-2.09 -6.38,-2.99 -8.72,0.67 2.93,2.64 9,1.75 10.34,5.35 0.68,1.83 0,4.91 -1.68,5.75 z"
           fill="#f3f6f8"
           id="path10" />
        <path
           d="m 72.25,413.04 c -1.48,-1.35 -6.57,-1.88 -8.02,-0.14 -0.6,0.72 -1.07,2.28 -1.56,2.73 -0.59,0.55 -2.41,0.27 -3.44,0 l 7.29,-16.06 3.99,0.2 6.99,15.88 -3.39,0.39 c -0.7,0.08 -0.98,-1.18 -1.86,-3 z m -1.44,-3.5 -2.68,-6.12 -2.54,5.88 z"
           fill="#f3f6f8"
           id="path11" />
        <path
           d="m 128.02,400.15 c 0.33,-0.62 2.59,-0.58 3.51,-0.35 l -6.82,16.12 -4.01,-0.21 -7.04,-15.98 4.12,-0.1 5.1,11.81 5.15,-11.3 z"
           fill="#f3f6f8"
           id="path12" />
        <rect
           x="142.33"
           y="399.51001"
           width="4.1799998"
           height="16.59"
           fill="#f3f6f8"
           id="rect12" />
        <g
           id="g21">
          <path
             d="m 263.76,308.68 c -9.42,11.05 -31.44,7.13 -44.83,7.28 -0.1,-3.17 6.44,0.02 6.44,-6.9 v -25.52 c 0.01,-2.87 -1.61,-4.36 -4.59,-4.46 -0.3,0 -1.25,-0.12 -1.21,-0.4 0.04,-0.28 0.06,-0.99 0.06,-1.32 0,-0.27 0.84,-0.23 1.33,-0.22 l 25.13,0.29 c 5.85,0.07 11.94,1.99 16.34,5.8 7.44,6.43 7.78,17.88 1.33,25.44 z m -5.22,-10.5 c 0.63,-9.09 -4.93,-16.33 -13.66,-17.62 -3.58,-0.53 -7.33,-0.41 -10.9,-0.16 l 0.02,32.14 c 4.89,1.46 9.85,1.51 14.52,-0.02 6.29,-2.06 9.56,-7.44 10.04,-14.34 z"
             fill="#f3f6f8"
             id="path15" />
          <path
             d="m 68.77,297.81 -11.93,-0.33 v 15.72 c 10.38,-0.34 16.16,2.5 21.45,-5.47 l 0.91,-1.37 c 0.18,-0.28 1.69,0.43 1.64,0.75 l -1.57,9.12 -37.62,-0.13 c 1.59,-3.51 6.3,-1.31 6.32,-4.64 l 0.17,-28.43 c 0.01,-1.94 -1.9,-3.61 -3.52,-3.79 l -1.85,-0.2 c -0.45,-0.05 -0.05,-1.85 0.69,-1.85 l 34.08,0.04 c 0.43,3.28 0.47,5.92 -0.11,9.89 -3.27,-5.2 -5.33,-7.17 -10.61,-7.08 l -9.95,0.17 -0.02,14.22 8.68,0.16 c 2.21,0.04 4.28,-1.74 5.03,-3.64 l 0.54,-1.37 c 0.17,-0.42 2.05,0.14 2.04,0.59 l -0.33,11.69 c -2.58,-0.8 -2.72,-1.76 -4.02,-4.06 z"
             fill="#f3f6f8"
             id="path16" />
          <path
             d="m 289.72,297.37 0.02,15.72 c 10.31,-0.13 15.67,2.48 21.04,-5.5 l 0.96,-1.42 c 2.64,-3.92 0.53,9.87 -0.04,10.07 l -35.46,0.05 c -0.84,0 -1.52,-1.53 -1.13,-1.6 l 1.92,-0.35 c 2.34,-0.43 4.13,-1.86 4.13,-4.45 l -0.02,-27.16 c 0,-5.03 -6.65,-2.17 -5.99,-5.46 l 35.05,-0.07 c 0.09,3.37 0.07,6.34 -0.51,9.93 -3.32,-3.77 -3.73,-6.71 -8,-6.81 l -11.86,-0.26 -0.11,13.98 c 15.56,2.73 12.46,-4.52 13.93,-4.37 l 1.77,0.18 -0.38,12.64 c -2.21,-1.67 -2.42,-2.39 -3.78,-4.77 l -11.52,-0.36 z"
             fill="#f3f6f8"
             id="path17" />
          <path
             d="m 118.61,302.33 -16.18,0.21 c -1.67,2.36 -3.24,5.8 -3.71,8.89 -0.39,2.55 3.29,2.29 5.27,4.37 -6,0.71 -11.56,0.73 -17.76,-0.06 4.18,-2.38 6.3,-3.28 7.84,-6.58 l 14.78,-31.7 c 2.41,-0.29 4.87,-0.32 7.42,-0.11 l 14.08,30.8 c 1.75,3.84 4.11,4.83 8.19,7.9 -0.33,0.3 -27.43,0.85 -21.11,-1.2 l 1.79,-0.58 2.52,-0.88 c 0.73,-0.25 0.74,-2.65 0.39,-3.42 l -3.53,-7.64 z m -1.01,-2.64 -7.58,-15.11 -6.89,15.11 z"
             fill="#f3f6f8"
             id="path18" />
          <path
             d="m 173.84,313.62 c -7.42,5.42 -19.99,3.79 -28.77,1.62 l -0.25,-9.66 c 0.33,-0.23 2.1,-0.56 2.21,-0.16 l 0.56,1.99 c 3.95,6.65 12.97,8.77 19.82,5.12 2.07,-1.1 3.26,-3.9 2.95,-6.09 -0.24,-1.67 -2.38,-4.03 -4.37,-4.77 l -13.59,-5.01 c -4.06,-1.5 -6.59,-5.25 -6.75,-9.04 -0.5,-12.05 20.02,-13.2 29.12,-9.51 0.29,3.11 0.93,6.18 -0.96,9.57 -3.24,-7.12 -8.03,-9.68 -14.96,-7.97 -2.23,0.55 -4.66,2.77 -4.96,4.94 -1.34,9.62 23.35,6.18 24.5,19.47 0.33,3.78 -1.36,7.16 -4.53,9.47 z"
             fill="#f3f6f8"
             id="path19" />
          <path
             d="M 32.95,304.9 C 33.04,319.03 10.42,318.88 0,315.01 l 0.09,-10.77 c 2.23,2.29 2.89,3.9 4.31,5.9 4.53,4.32 11.7,5.37 17.29,2.57 2,-1 3.41,-3.57 3.37,-5.55 -0.03,-1.61 -1.89,-4.4 -3.74,-5.11 L 7.31,296.63 c -3.74,-1.45 -6.49,-5.49 -6.49,-8.92 0.01,-12.57 19.74,-13.11 28.85,-9.55 l 0.08,8.6 c -2.66,0.57 -2.63,-1.79 -3.72,-3.47 -3.07,-4.71 -10.11,-5.19 -14.83,-2.32 -1.6,0.97 -2.61,3.48 -2.37,5.16 0.2,1.38 1.98,3.63 3.49,4.2 l 13.6,5.14 c 4.32,1.63 7,5.4 7.03,9.45 z"
             fill="#f3f6f8"
             id="path20" />
          <path
             d="m 203.33,310.6 c 0.02,4.75 5.97,2.62 5.8,5.39 -7.3,0.4 -13.73,0.51 -20.78,-0.21 1.95,-1.99 5.77,-1.9 6.02,-3.81 l 0.18,-27.78 c 0,-1.24 -0.38,-3.49 -1.21,-3.98 l -4.49,-2.6 19.49,-0.4 c 2.27,3.48 -5.13,-0.13 -5.11,6.24 z"
             fill="#f3f6f8"
             id="path21" />
        </g>
      </g>
    </g>
  </g>
</svg>
