<?xml version="1.0" encoding="UTF-8"?>
<svg id="Layer_1" data-name="Layer 1" xmlns="http://www.w3.org/2000/svg" viewBox="0 0 313.03 416.54">
  <path d="M101.11,357.4l-.17,10.99c-.03,2.13,1.94,3.72,3.81,3.95l1.75.22c.36.04.22.58.26,1.67l-20.89-.26c2.67-2.01,4.95-2.77,6.43-4.27l.12-28.51c0-2.32-1.54-3.69-3.73-4.04l-1.81-.3c-.34-.06.14-1.68.57-1.69l18.88-.17c7.35-.07,17.48.97,18.54,9.05.5,3.77-1.21,7.47-4.69,9.31l-4.73,2.5,9.64,11.67c2.35,2.85,5.1,3.74,9.07,6.34l-14.07.31-11.78-14.53c-1.51-1.86-4.63-3.4-7.21-2.25ZM109.69,353.71c4.02-.73,6.42-3.98,6.37-7.47s-2-7.06-6.17-7.77c-2.73-.47-5.59-.46-8.83-.41v16.17c3.19.02,5.92-.03,8.64-.52Z" fill="#f3f6f8"/>
  <path d="M270.85,367.36c5.3,5.44,9.71,4.84,9.66,5.23l-.23,1.66-14.18-.12c-2.73-3.19-16-17.83-18.4-17.75-.54.02-1.43,1.58-1.42,2.15l.18,12.34c2.55,1.12,4.08,1.19,6.07,3.03-1.06.31-23.86.99-20.75-.76,2.76-1.55,5.98-.7,5.97-5.55l-.05-26.39c0-2.36-1.72-3.77-3.91-4.11l-1.87-.29c-.31-.05.24-1.72.57-1.72l18.73.09c.21,0,1.03,1.16.84,1.27-2.09,1.25-6.01.65-5.85,5.61.15,4.33.18,8.06.66,12.65,2.7-1.94,20.68-15.64,17.44-16.78l-2.14-.75-1.33-.47c-5.78-2.04,15.88-1.81,15.75-1.17-2.04,2.59-4.76,2.37-6.52,3.94l-14.16,12.58,14.92,15.32Z" fill="#f3f6f8"/>
  <path d="M153.01,355.37l.13,15.87h12.93c5.39,0,7.39-4.92,8.97-6.86.27-.33,1.7.67,1.64,1.08l-1.33,8.69-34.65.09c-.73,0-1.74-.35-1.99-.48s-.14-1.15.13-1.2l1.42-.25c1.92-.34,3.93-1.83,3.93-3.93l.04-27.2c0-2.31-1.7-3.91-3.92-4.08l-1.5-.12c-.38-.03-.45-.88-.4-1.25s1.33-.66,1.74-.66l33.54.06.07,8.41c0,.64-2.28.28-2.44-.35-.61-2.4-3.11-5.13-5.66-5.14l-12.49-.06-.13,14.53,9.49.04c3.21.01,4.45-4.76,4.67-4.74l1.8.16-.44,12.38c-2.68-1.6-3.03-4.56-4.6-4.69-3.78-.3-6.59-.3-10.95-.31Z" fill="#f3f6f8"/>
  <path d="M209.59,355.47l-9.75-.09.04,15.62c4.88.43,9.55.54,14.5-.03,4.21-.48,5.81-4.66,7.62-6.72.28-.32,1.62.76,1.53,1.26l-1.55,8.71-37.3-.13c2.27-2.48,4.7-2.1,6.39-3.9l.15-28.98c.01-2.34-1.76-3.62-3.89-4.07l-1.75-.37c-.33-.07.11-1.64.68-1.64l33.91-.09.38,8.19c.02.39-1.48,1.47-1.7,1.16-1.67-2.39-2.5-6.24-6.2-6.28l-12.77-.13v14.64s9.07-.07,9.07-.07c3.44-.03,6.99-9.45,6.6-2.93l-.65,10.66c-2.61-2.23-3.31-4.81-5.32-4.83Z" fill="#f3f6f8"/>
  <path d="M43.89,353.56c-.57,9.03,4.69,15.71,12.69,17.73,8.46,2.14,16-.73,20.66-9.09,1.32,3.61.41,6.36-.35,9.61-9.27,3.97-19.64,4.38-29.37,1.44-8.23-2.49-13.47-9.31-13.66-17.38s4.41-15.33,12.46-18.65c9.58-3.95,20.47-3.56,30.68-.97l.05,9.45-2.36-.3c-2.74-9.36-15.47-9.12-22.24-5.9-5.28,2.52-8.18,7.95-8.57,14.06Z" fill="#f3f6f8"/>
  <path d="M99.29,415.43c-3.8.91-7.93.66-11.69.43l-.06-16.37c6.35-.21,17.18-.99,17.72,7.62.22,3.44-1.58,7.28-5.96,8.32ZM99.13,403.48c-2.02-1.57-5.18-1.75-7.48-1.25l.14,11.4c3.79.33,6.7-.03,8.3-2.54,1.31-2.05,1.39-5.78-.96-7.61Z" fill="#f3f6f8"/>
  <path d="M196.93,400.26c4.62,2.11,5.19,6.55,4.04,10.73-.97,3.52-5.04,5.39-9.23,5.49-4.59.11-8.54-2.04-9.67-6.42-.99-3.85.87-8.48,5.26-10.12,2.67-.99,6.81-.96,9.6.32ZM197.18,407.6c-.02-3.81-2.64-6.09-5.66-6.04-3.32.05-5.24,2.55-5.42,5.93-.2,3.77,1.95,6.61,5.35,6.62s5.75-2.36,5.73-6.51Z" fill="#f3f6f8"/>
  <path d="M227.34,415.69c-7.48,2.45-5.64-6.45-11.28-5.95l-.68,6.05-3.6.05.03-16.41,10.41.18c2.15.04,4.38,2.68,4.44,4.32.09,2.67-1.26,4.21-3.79,5.56l4.47,6.19ZM222.18,407.06l-.05-4.63-6.44-.5.08,5.94,6.41-.81Z" fill="#f3f6f8"/>
  <path d="M249.35,407.4c1.31.4,2.81,3.29,2.51,4.56-1.28,5.53-10.2,5.34-14.5,3.06l.52-3.24c3.43,1.89,7.29,4.26,10.48-.24-3.15-3.24-10.37-2.19-11.25-6.37-.38-1.81.71-4.37,2.6-5.16,3.04-1.26,7.15-.89,10.22.08l.29,3.04c-6.52-2.99-10.13-.45-9.26.74.34.47,1.33,1.37,1.95,1.56l6.43,1.96Z" fill="#f3f6f8"/>
  <path d="M170.38,415.17c-4.34,2.18-8.62,1.51-12.36-.24l.57-3.07c3.35,2.29,8.68,3.39,10.03.09.22-.54-.89-1.85-1.53-2.02l-5.89-1.63c-1.34-.37-3.21-2.49-3.29-3.79-.1-1.54,1.33-3.91,3.18-4.65,2.42-.96,7.12-.59,9.21.33.7.31.45,3.09.15,3.2-3.46-2.09-6.38-2.99-8.72.67,2.93,2.64,9,1.75,10.34,5.35.68,1.83,0,4.91-1.68,5.75Z" fill="#f3f6f8"/>
  <path d="M72.25,413.04c-1.48-1.35-6.57-1.88-8.02-.14-.6.72-1.07,2.28-1.56,2.73-.59.55-2.41.27-3.44,0l7.29-16.06,3.99.2,6.99,15.88-3.39.39c-.7.08-.98-1.18-1.86-3ZM70.81,409.54l-2.68-6.12-2.54,5.88,5.22.24Z" fill="#f3f6f8"/>
  <path d="M128.02,400.15c.33-.62,2.59-.58,3.51-.35l-6.82,16.12-4.01-.21-7.04-15.98,4.12-.1,5.1,11.81,5.15-11.3Z" fill="#f3f6f8"/>
  <rect x="142.33" y="399.51" width="4.18" height="16.59" fill="#f3f6f8"/>
  <g>
    <path d="M82.01,244.56c-.12-2.65,1.53-5.7,3.47-7.56,9.96-9.53,21.49-1.76,27.57-3.43l13.43-3.68-.17-18.93c-13.79,1.68-26.38,1.38-39.03-2.88-2.25-.76-3.07-2.31-2.95-4.82.7-14.78,4.86-28.57,11.14-42.08l-3.8-1.68c12.96-33.49,37.82-59.06,74.68-63.26,6.36-.72,12.44-2.95,17.05-6.91,7.36-6.32,7.35-16.29.62-23.14-11.38-11.58-23.59-20.13-26.21-39.17-1.58-11.49,4.84-21.86,15.98-25.33,8.84-2.75,18.76-2.18,27.19,2.04,14.44,7.23,17.63,22.98,19.73,37.67,3.32,23.24,9.73,45.27,19.3,66.7,2.67,5.98,10.08,23.36,4.54,27.86-2.92,2.37-6.33.05-9.04-1.44-5.42-4.33-7.95-10.22-11.62-17.09-1.03,15.6-3.23,30.68-10.76,44.32s-17.94,24.18-32.1,30.87c-.26,9.43,1.34,18.07,4.05,26.85,2.04,6.62,11.63-1.74,18.66,12.41,7.53,1.04,14.26,5.04,16.34,12.7l-138.07-.02ZM168.59,192.01c1.87,10.49,4.29,19.74,7.4,29.31.91,2.8.35,5.54-1.18,8.62l21.56,1.67c-4.29-6.76-13.12-.59-16.49-9.78-3.78-10.3-5.2-21.27-4.9-32.63,36.04-16.98,49.43-60.12,38.93-97.38-5.04-17.87-12.66-34.59-22.38-50.2-.98-1.58-1.37-3.27-.29-4.34.74-.73,3.43-.43,4.06.45,12.58,17.46,21.2,40.07,28.12,60.32,2.41,7.06,9.77,29.53,17.38,32.21-.2-5.01-1.85-9.23-3.66-13.77-5.21-13.09-10.5-25.66-14.56-39.22s-5.99-27.59-8.52-41.78c-1.5-8.4-3.83-16.4-9.76-22.55-9.53-9.89-30.07-10.48-37.89.69-9.07,12.94,3.11,32.29,13.86,42.18,4.04,3.71,8.45,6.95,11.77,11.33,7.09,9.32,3.48,22.05-6.33,28.16-17.74,11.04-33.86,2.45-57.78,22.31-11.7,9.72-21.08,22.02-27.05,35.85,2.14.56,3.7,1.1,4.92,1.96-7.5,13.96-14.08,31.11-13.82,47.31,9.46,3.28,18.96,3.72,28.69,2.7l11.37-1.19.53,25.33c14.71-2.59,18.3,5.05,29.06-.31-6.81-1.9-12.82-2.79-19.61-3.53-7.55-.82-6.39-16.44-6.32-22.14,11.76-2.29,22.01-6.58,32.86-11.58ZM170.34,224.57l-6.55-24.01c-7.78,3.45-14.34,5.83-22.28,8.15-.07,3.64.41,7.79,1.16,11.38l27.67,4.47Z" fill="#f3f6f8"/>
    <path d="M149.94,185.29c-5.16,2.7-31.47,14.89-34.4,10.56-.45-.67.64-2.49,1.65-2.83,19.04-6.26,36.47-16,51.78-28.97,8.4-7.12,14.24-15.64,19.19-25.29,4.95-9.66,7.33-19.73,7.23-30.86-.01-1.44,1.44-3.03,2.81-3.25,1.17-.19,3.02,1.73,3.04,3.41.22,19.32-6.98,37-19.11,51.95-8.78,10.83-19.81,18.79-32.18,25.28Z" fill="#f3f6f8"/>
  </g>
  <g>
    <path d="M263.76,308.68c-9.42,11.05-31.44,7.13-44.83,7.28-.1-3.17,6.44.02,6.44-6.9v-25.52c.01-2.87-1.61-4.36-4.59-4.46-.3,0-1.25-.12-1.21-.4s.06-.99.06-1.32c0-.27.84-.23,1.33-.22l25.13.29c5.85.07,11.94,1.99,16.34,5.8,7.44,6.43,7.78,17.88,1.33,25.44ZM258.54,298.18c.63-9.09-4.93-16.33-13.66-17.62-3.58-.53-7.33-.41-10.9-.16l.02,32.14c4.89,1.46,9.85,1.51,14.52-.02,6.29-2.06,9.56-7.44,10.04-14.34Z" fill="#f3f6f8"/>
    <path d="M68.77,297.81l-11.93-.33v15.72c10.38-.34,16.16,2.5,21.45-5.47l.91-1.37c.18-.28,1.69.43,1.64.75l-1.57,9.12-37.62-.13c1.59-3.51,6.3-1.31,6.32-4.64l.17-28.43c.01-1.94-1.9-3.61-3.52-3.79l-1.85-.2c-.45-.05-.05-1.85.69-1.85l34.08.04c.43,3.28.47,5.92-.11,9.89-3.27-5.2-5.33-7.17-10.61-7.08l-9.95.17-.02,14.22,8.68.16c2.21.04,4.28-1.74,5.03-3.64l.54-1.37c.17-.42,2.05.14,2.04.59l-.33,11.69c-2.58-.8-2.72-1.76-4.02-4.06Z" fill="#f3f6f8"/>
    <path d="M289.72,297.37l.02,15.72c10.31-.13,15.67,2.48,21.04-5.5l.96-1.42c2.64-3.92.53,9.87-.04,10.07l-35.46.05c-.84,0-1.52-1.53-1.13-1.6l1.92-.35c2.34-.43,4.13-1.86,4.13-4.45l-.02-27.16c0-5.03-6.65-2.17-5.99-5.46l35.05-.07c.09,3.37.07,6.34-.51,9.93-3.32-3.77-3.73-6.71-8-6.81l-11.86-.26-.11,13.98c15.56,2.73,12.46-4.52,13.93-4.37l1.77.18-.38,12.64c-2.21-1.67-2.42-2.39-3.78-4.77l-11.52-.36Z" fill="#f3f6f8"/>
    <path d="M118.61,302.33l-16.18.21c-1.67,2.36-3.24,5.8-3.71,8.89-.39,2.55,3.29,2.29,5.27,4.37-6,.71-11.56.73-17.76-.06,4.18-2.38,6.3-3.28,7.84-6.58l14.78-31.7c2.41-.29,4.87-.32,7.42-.11l14.08,30.8c1.75,3.84,4.11,4.83,8.19,7.9-.33.3-27.43.85-21.11-1.2l1.79-.58,2.52-.88c.73-.25.74-2.65.39-3.42l-3.53-7.64ZM117.6,299.69l-7.58-15.11-6.89,15.11h14.47Z" fill="#f3f6f8"/>
    <path d="M173.84,313.62c-7.42,5.42-19.99,3.79-28.77,1.62l-.25-9.66c.33-.23,2.1-.56,2.21-.16l.56,1.99c3.95,6.65,12.97,8.77,19.82,5.12,2.07-1.1,3.26-3.9,2.95-6.09-.24-1.67-2.38-4.03-4.37-4.77l-13.59-5.01c-4.06-1.5-6.59-5.25-6.75-9.04-.5-12.05,20.02-13.2,29.12-9.51.29,3.11.93,6.18-.96,9.57-3.24-7.12-8.03-9.68-14.96-7.97-2.23.55-4.66,2.77-4.96,4.94-1.34,9.62,23.35,6.18,24.5,19.47.33,3.78-1.36,7.16-4.53,9.47Z" fill="#f3f6f8"/>
    <path d="M32.95,304.9c.09,14.13-22.53,13.98-32.95,10.11l.09-10.77c2.23,2.29,2.89,3.9,4.31,5.9,4.53,4.32,11.7,5.37,17.29,2.57,2-1,3.41-3.57,3.37-5.55-.03-1.61-1.89-4.4-3.74-5.11l-14.01-5.42c-3.74-1.45-6.49-5.49-6.49-8.92.01-12.57,19.74-13.11,28.85-9.55l.08,8.6c-2.66.57-2.63-1.79-3.72-3.47-3.07-4.71-10.11-5.19-14.83-2.32-1.6.97-2.61,3.48-2.37,5.16.2,1.38,1.98,3.63,3.49,4.2l13.6,5.14c4.32,1.63,7,5.4,7.03,9.45Z" fill="#f3f6f8"/>
    <path d="M203.33,310.6c.02,4.75,5.97,2.62,5.8,5.39-7.3.4-13.73.51-20.78-.21,1.95-1.99,5.77-1.9,6.02-3.81l.18-27.78c0-1.24-.38-3.49-1.21-3.98l-4.49-2.6,19.49-.4c2.27,3.48-5.13-.13-5.11,6.24l.1,27.15Z" fill="#f3f6f8"/>
  </g>
</svg>