<?xml version="1.0" encoding="UTF-8"?>
<svg id="Layer_1" data-name="Layer 1" xmlns="http://www.w3.org/2000/svg" viewBox="0 0 292.33 398.39">
  <g>
    <g>
      <path d="M100.43,344.68c-.8-1.01-2.01-1.95-2.8-2.23-.94-.33-3.8.84-3.79,1.94l.09,11.04,5.28,2.68c-6.56.59-12.46.54-19.19.02,2.32-2.11,5.75-1.62,5.77-4.52l.12-25.72c.03-5.35-6.87-3.56-5.36-4.94l.95-.87,15.77-.02c5.18,0,10.2-.04,14.85,2.48s5.38,9.42,1.33,12.83c-1.86,1.57-3.75,2.55-6.38,4.14l10.05,12.35c1.54,1.89,4.06,2.29,6.75,4.46l-12.63.13-10.83-13.77ZM107.63,333.95c.54-2.51.09-5.82-2.21-7.35-3.44-2.28-7.71-2.26-11.6-1.38l.14,14.8c5.99.21,12.45-.42,13.67-6.08Z" fill="#1c3757"/>
      <path d="M261.46,358.09l-13.49.46-16.85-17.54c-1.95,2.1-1.8,4.48-1.72,7.27l.24,7.71c2.48.89,3.14.94,4.85,2.23-6.84.47-12.16.43-19.11-.04l5.65-3.39.11-26.88c.02-3.83-2.47-3.5-5.17-4.89-2.88-1.49,18.46-1.21,18.87-.39l-5.16,2.46c-.61,4.81-.91,9.57.48,14.57,6.46-4.84,11.45-9.12,16.69-14.27l-4.57-3.25,15.16.17c-2.07,2.26-4.04,2.23-5.88,3.29l-13.81,12.03,13.52,13.81c2.9,2.96,5.59,4.25,10.17,6.67Z" fill="#1c3757"/>
      <path d="M156.42,345.32c-5.1-6.47-4.07-4.73-14.45-4.68l.24,15.03,10.58.28c7.17.19,8.52-5.42,10.82-6.51.36-.17.66,1.35.59,1.79l-1.2,7.33-34.65-.16c.96-3.06,5.5.15,5.46-7.12l-.17-26.24c-2.29-.96-3.4-.91-5.21-2.93l32.91-.12-.35,8.85c-2.42-2.36-3.93-5.86-6.83-5.92l-12.18-.24.11,13.34,10.72-.38,3.65-4.54c.42,4.76.44,7.76-.05,12.23Z" fill="#1c3757"/>
      <path d="M200.46,344.77c-5.01-.21,1.6-5.58-14.39-4.23l-.08,15.33c5.56.09,9.69.23,14.67-.66,2.91-.52,4-3.96,6.99-6.24.05,3.27-.34,6.43-.96,9.54l-34.84-.18,5.75-3.55-.03-28.22c0-3.23-3.81-1.3-5.33-4.48l32.73-.1-.08,8.65c-2.5-2.5-3.41-5.64-6.49-5.71l-12.17-.27c-.32,4.98-.35,8.47-.1,13.25,9.79.02,8.23,1.43,14.07-4.41l.56,9.64c.02.42.05,1.66-.28,1.65Z" fill="#1c3757"/>
      <path d="M47.13,353.3c4.28,3.27,10.37,3.58,15.4,2.36,4.29-1.04,6.25-4,9.71-7.57.25,2.64.08,5.75-.48,8.18-12.05,5.38-34.15,5.04-38.99-9.87-1.89-5.82-.69-11.67,2.97-16.41,7.67-9.92,25.18-9.99,35.81-6.78.02,3.55-.04,6.04-.55,9.62-3.38-5.78-6.22-8.56-12.33-8.57-3.92-.01-8.53.64-11.86,3.39-7.94,6.54-7.97,19.33.31,25.64Z" fill="#1c3757"/>
    </g>
    <g>
      <path d="M245.58,297.31c-9.37,9.58-28.15,6.2-41.6,6.24l6.26-3.56.08-28.97-5.45-3.4c8.23-.42,16.4-.5,24.94-.12,5.79.26,11.42,1.96,15.51,6.03,6.28,6.25,6.53,17.37.26,23.78ZM241.12,283.31c-1.29-12.58-13.31-14.46-22.9-12.85l.1,30.52c6.26,1.01,12.31,1.04,17.42-2.4,4.79-3.24,6-9.29,5.39-15.27Z" fill="#1c3757"/>
      <path d="M270.52,285.72l.06,14.86c19.98,2.86,17.2-4.03,21-5.97.38-.19.82,1.46.75,1.94l-1.11,7.15-34.56-.1c1.86-2.18,5.55-1.93,5.56-4.02l.15-26.42c.03-6-7.07-2.64-5.81-5.82l32.78.03v9.07c-3.24-2.69-3.45-5.99-6.45-6.18-4.21-.28-7.62-.26-12.41-.24l.18,12.66c2.99,1.21,7.71,1.04,10.59-.33l3.25-3.83c.27,4.62.31,7.01.05,12.16l-3.78-4.57-10.24-.39Z" fill="#1c3757"/>
      <path d="M110.54,290.8l-15.44.15-2.78,5.88c-.44.93-.95,3.69-.16,4.14l4.19,2.41c.44.38-19.23,1.12-15.18-.55l1.44-.59c2.17-.9,3.88-2.29,4.91-4.49l14.16-30.06c1.87-.47,4.32-.48,6.53-.16l14.98,32.32c.76,1.65,3.33,1.48,5.21,3.63l-18.62.39c-.07-.52-.23-1.41-.02-1.42l1.01-.03,2.58-1.01c.66-.26.83-2.65.5-3.37l-3.31-7.24ZM109.61,287.99l-6.83-14.4-6.78,14.73c5.48.27,8.83.37,13.61-.33Z" fill="#1c3757"/>
      <path d="M135.19,302.84v-9.75c1.72,1,1.92,1.66,2.82,3.15,3.69,6.11,12.78,7.61,18.65,3.67,1.31-.88,2.51-3.31,2.49-4.54-.13-8.11-17.62-6.28-22.24-15.08-2.83-5.39,1.15-10.73,6.52-12.44,6.46-2.06,12.92-1.45,19.39.17.05,3.17.17,5.51-.79,8.72-3.2-6.82-7.92-8.74-14.34-7.04-1.71.45-3.98,2.43-4.33,3.92-.53,2.26,1.02,4.99,3.26,5.85l14.07,5.37c3.21,1.22,5.33,4.94,5.54,7.81.26,3.58-1.36,6.85-4.63,9.02-7.35,4.88-17.24,3.28-26.4,1.18Z" fill="#1c3757"/>
      <path d="M64.3,287.08c-3.56-1.84-7.87-1.28-11.54-.91l.15,15.15,12.33-.27c4.12-.09,6.32-3.27,8.51-6.47,1.02.24.52,1.78.39,2.95l-.73,6.28-34.26-.06,5.61-3.8-.16-28.68c-.01-2.04-4.22-1.97-5.99-3.7l33.49-.21-.13,8.69c-3.15-4.35-4.53-6.14-9.16-6.07l-9.98.13.05,13.07c4.05.26,7.55.24,11.02-.11l3.32-4.63.34,11.61c-1.91.12-1.98-2.32-3.24-2.97Z" fill="#1c3757"/>
      <path d="M30.77,292.65c1.1,13.41-20.09,13.5-30.28,10.4-.55-3.35-.78-6.46.08-10.42,3.34,6.32,6.51,9.2,12.93,9.44,4.15.15,9.47-1.28,10.07-6.48.32-2.75-3.16-5.13-5.55-6.07l-11.32-4.44c-3.63-1.42-5.67-4.99-5.74-8.46-.22-11.61,18.34-11.08,26.42-8.46l-.27,8.79-3.5-5.03c-3.66-3.67-10.73-3.67-14.52.02-2.53,2.46-.23,6.48,2.71,7.62l12.86,4.97c3.52,1.36,5.84,4.93,6.1,8.13Z" fill="#1c3757"/>
      <path d="M194.6,303.45c-5.85.48-11.77.51-18.37.25l5.66-3.83-.03-27.82c0-2.21-2.5-3.37-4.76-2.67-.55.17-.11-1.9.55-1.92,5.08-.14,12.51-.35,17.97.45-1.08,2.68-5.77.6-5.78,3.61l-.07,27.93c0,1.47,2.59,2.44,4.83,3.99Z" fill="#1c3757"/>
    </g>
    <g>
      <path d="M91.07,397.69c-3.25.36-6.48.35-9.68.32l-.18-15.65c6.5-.12,16.4-1.11,16.62,7.5.1,3.76-2.11,7.31-6.76,7.82ZM85.37,395.8c5.04-.08,6.98-.9,8.02-3.2s.33-5.33-1.37-6.61c-1.86-1.39-5.19-1.89-6.99-.64l.34,10.44Z" fill="#1c3757"/>
      <path d="M211.43,397.63c-5.67,1.94-4.94-4.4-9.1-5.4-1.64-.39-.89,5.12-1.62,5.29l-3.59.86-.06-15.99c4.02.2,14.35-1.88,14.26,4.55-.03,1.84-1.34,3.72-3.22,5.11l3.33,5.57ZM205.67,389.9c.77-.05,1.86-1.6,1.95-2.34.07-.6-.76-2.32-1.34-2.43-1.32-.24-4-.4-5.56-.46l.1,5.55,4.86-.33Z" fill="#1c3757"/>
      <path d="M181.87,382.49c4.83,1.35,6.35,5.45,5.63,9.45-.68,3.73-4.44,6.15-8.56,6.32-4.8.2-8.96-1.79-9.81-6.58-.74-4.15,1.77-8.56,6.9-9.39,1.49-.24,4.24-.25,5.85.2ZM183.88,390.74c.4-3.86-2.11-6.45-5.43-6.5-3.71-.06-5.93,2.83-5.54,6.73.31,3.16,2.7,5.25,5.63,5.25,2.9,0,5.03-2.44,5.34-5.48Z" fill="#1c3757"/>
      <path d="M157.9,397.42c-2.66,1.33-7.6.78-9.93-.13-.7-.27-.87-2.47-.73-3.28,3.16,1.42,6.47,3.28,10.02-.19-2.53-3.6-10.46-1.8-10.32-6.94.05-1.83,1.55-4.15,3.6-4.51,2.97-.53,5.77-.22,8.4.55l.15,3.98c-2.73-2.68-5.69-3.75-8.48-.92.44,3.41,8.83,2.13,9.87,6.38.37,1.53-.58,4.09-2.56,5.08Z" fill="#1c3757"/>
      <path d="M232.28,397.34c-5.16,1.88-10.86.37-10.88-.59l-.04-2.69c3.18,1.49,6.43,3.05,9.95-.13-3.09-3.6-8.15-1.88-9.99-5.39-.63-1.2-.28-4.31.89-5.1,2.76-1.87,7.94-1.6,10.27-.58.72.32.58,2.94.31,2.9-3.41-1.78-6.37-3-8.83,1.16,3.56,2.37,9.22,1.63,10.58,5.48.44,1.25-.75,4.38-2.26,4.93Z" fill="#1c3757"/>
      <path d="M67.32,395.59c-1.24-1.55-6.23-1.82-7.57-.38-.54.58-1.11,2.35-1.72,2.53s-1.8.08-3-.04l6.85-15.24c1.06,0,2.97.13,3.73.26l6.5,14.02c.35.75-1.63,1.82-2.26,1.48-.67-.36-1.53-1.38-2.54-2.64ZM66.08,391.69l-2.74-5.56-2.38,5.58h5.11Z" fill="#1c3757"/>
      <path d="M119.37,382.84c.28-.56,2.74-.41,3.17-.15l-6.87,14.84c-.41.89-3.37.78-3.79-.21l-6.29-14.76c1.13-.18,3.21-.15,3.89.41l4.79,10.01,5.11-10.15Z" fill="#1c3757"/>
      <rect x="132.11" y="382.22" width="3.91" height="15.69" fill="#1c3757"/>
    </g>
  </g>
  <g>
    <path d="M62.19,240.51l13.35-.46c1.71-7.31,8.26-11.3,15.87-10.91,12.79.67,5.88,4.09,25.53-2.33l-.04-18.58c-12.75,1.81-24.55,1.64-36.49-2.27-2.33-.76-3.14-2.28-3.01-4.76.79-14.67,4.49-28.52,10.22-41.71-.92-.17-3.19-1.13-2.94-1.84,4.84-14.29,12.79-27.85,23.4-38.43,12.59-12.56,28.07-19.5,45.38-21.88,10.18-1.39,22.38-7.24,23.56-18.08.58-5.3-1.52-10.34-5.48-14-11.38-10.5-23.95-23.39-24.53-40.22-.37-10.78,5.59-20.19,15.88-23.39,9.54-2.97,19.9-2.02,28.34,3.58,11.24,7.46,14,22.02,15.76,34.9,3.34,24.46,9.82,47.82,19.32,70.54,2.25,5.38,7.92,20.61,2.89,24.4-2.6,1.96-5.85-.29-7.9-1.84-5.84-4.42-8.02-10.65-11.77-17.37-.84,16.9-3.6,32.06-11.76,45.89-7.08,12-16.4,21.66-29.3,27.9.14,8.95,1.4,17.44,3.89,26.12,1.89,6.6,11.33-1.05,17.71,12.56,7.15,1.09,13.51,4.67,15.17,12.31l-128.03.05c-5.42,0-9.91.71-15.02-.18ZM163.74,217.77c.77,2.79-.21,6.19-1.5,8.54l21.55,1.67c-2.8-7-13.44-.25-16.55-10.6s-4.41-20.18-4.43-30.93c17.96-8.88,30.49-24.45,36.64-43.61,6.49-20.24,5.06-41.29-1.92-61.3-4.89-14.03-9.93-27.36-18.2-39.71-.56-.84-1.16-2.62-.89-3.42.23-.66,1.56-1.39,2.26-1.37s2.23.88,2.67,1.56c10.87,16.63,18.8,36.6,24.92,55.7,2.6,8.12,9.64,32.19,17.85,35.39-.92-6.53-2.67-12.1-5.06-17.85-9.22-22.23-15.62-44.79-18.98-68.75-.99-7.1-2.21-13.85-4.3-20.4-4.08-12.8-15.65-19.25-28.65-17.39-11.14,1.6-18.62,10.54-16.74,22.02,2.66,16.2,13.48,25.87,24.48,36.28,8.66,8.2,8.64,20.93-.15,29.18-16.05,15.07-34.98,4-60.45,26.32-10.39,9.1-18.69,20.62-23.37,33.31,1.69.23,4.25,1.33,3.79,2.22-7.43,14.67-11.94,29.39-12.3,45.87,11.33,4.97,25.35,2.82,37.24,1.61l.82,24.4c6.99-.7,13.43-.05,20.51,1.22,2.26-.25,5.19-1.11,7.76-2.16-7.36-1.82-14.71-2.74-22.05-3.95-3.53-6.12-3.58-13.9-2.78-20.41,11.03-2.35,20.64-6.24,30.88-11.5,2.07,9.62,4.32,18.61,6.94,28.06ZM131.95,217.2l26.91,4.36-6.18-24.15c-7.07,3.95-13.61,6.4-21.83,8.56l1.09,11.23Z" fill="#1c3757"/>
    <path d="M109.9,194.56l-3.19-.84c-.67-.18-.03-2.45.92-2.8,16.88-6.28,34.55-15.82,49.03-28.4,16.12-14,25.13-33.64,26.15-54.97.05-1.09,1.58-2.46,2.46-2.48,1.02-.02,2.59,1.73,2.56,3.23-.9,45.58-36.65,74.81-77.93,86.26Z" fill="#1c3757"/>
  </g>
</svg>